<?xml version="1.0" encoding="UTF-8"?><svg id="Layer_1" xmlns="http://www.w3.org/2000/svg" viewBox="0 0 448 480.04"><path d="M241.38,352.33c-.81-9.23-8.86-16.44-18.55-16.44-8.6-.06-16.11,5.77-18.2,14.11l-18.2,88.38c-.6,2.58-.91,5.23-.93,7.88,0,19.93,16.68,33.78,37.33,33.78s37.34-13.85,37.34-33.78c-.01-3.19-.44-6.37-1.29-9.45l-17.5-84.48ZM379.05,391.86c-1.85-1.62-3.84-3.08-5.95-4.35l-69.53-48.59c-6.77-4.25-14-4.13-19.25,1-4.73,4.5-5.57,11.73-2,17.2l52.5,69c1.2,1.67,2.54,3.24,4,4.69,9.1,10.17,29.28,10.73,40.37,0,10.94-10.91,10.81-30.35-.14-38.95h0ZM431.3,319.88h-70.42c-4.55,0-8.88,3.35-8.88,8.16s2.95,7.85,6.92,9.16l66.43,20.55c9.65,2.25,22.65-6.35,22.65-17.09,0-13.66-7.6-20.78-16.7-20.78ZM96.22,328c0-5-4.55-8.16-9.45-8.16H16.35c-8.87,0-16.35,9.58-16.35,20.32s12.62,19.84,22.3,17.59l67.43-20.55c4.39-1.31,6.49-4.2,6.49-9.2ZM144.55,339l-69.55,48.38c-2.16,1.22-4.17,2.67-6,4.35-10.65,9.9-11.25,26.56-1.35,37.21.43.47.88.92,1.35,1.35,11.33,10.7,29.03,10.7,40.36,0,1.49-1.42,2.83-2.99,4-4.68l52.54-68.61c3.5-5.58,2.92-12.49-2-17.06-5.36-4.99-13.54-5.39-19.35-.94h0Z" style="fill:#ff9100; stroke-width:0px;"/><path d="M336,109.09c0-55.7-49.22-89.16-94.2-93.06-4.4-.38-8.28,2.87-8.66,7.28-.01.14-.02.29-.03.43-3.12,76-109.38,110.69-119.87,178.68-7,45.4,16.65,72.37,34.31,85.78,7.01,5.33,17.01,3.96,22.34-3.05.61-.81,1.15-1.67,1.59-2.57,22.5-45.86,74.33-63.49,109.72-85.94,42.88-27.2,54.8-56.44,54.8-87.55h0Z" style="fill:none; stroke:#4c1c84; stroke-linecap:round; stroke-miterlimit:10; stroke-width:32px;"/><path d="M208,79.7c-12.82-23-30.51-31-59.16-31.63-2.08-.12-3.87,1.44-4.06,3.51-.95,34.22-32.78,44.85-32.78,73.15,0,19.37,5.39,29,17.16,39.28M320.45,162.76c8.6,14.31,15.55,30.08,15.55,48,0,52.52-42.47,93.1-94.86,93.1-24.25.02-47.57-9.29-65.14-26" style="fill:none; stroke:#4c1c84; stroke-linecap:round; stroke-miterlimit:10; stroke-width:32px;"/></svg>