<?xml version="1.0" encoding="UTF-8"?><svg id="Layer_1" xmlns="http://www.w3.org/2000/svg" viewBox="0 0 352 448"><path d="M348,192h-140c-26.51,0-48-21.49-48-48V4c0-2.21-1.79-4-4-4h-92C28.65,0,0,28.65,0,64v320c0,35.35,28.65,64,64,64h224c35.35,0,64-28.65,64-64v-188c0-2.21-1.79-4-4-4ZM256,352H96c-8.84,0-16-7.16-16-16s7.16-16,16-16h160c8.84,0,16,7.16,16,16s-7.16,16-16,16ZM256,272H96c-8.84,0-16-7.16-16-16s7.16-16,16-16h160c8.84,0,16,7.16,16,16s-7.16,16-16,16Z" style="fill:#4c1c84; stroke-width:0px;"/><path d="M339.22,156.59L195.41,12.78c-.78-.78-2.05-.77-2.83,0-.37.37-.58.88-.58,1.4v129.81c0,8.84,7.16,16,16,16h129.81c1.1,0,2-.9,1.99-2.01,0-.53-.21-1.03-.58-1.4Z" style="fill:#ff9100; stroke-width:0px;"/></svg>