<?xml version="1.0" encoding="UTF-8"?><svg id="Layer_1" xmlns="http://www.w3.org/2000/svg" viewBox="0 0 448.03 460"><path d="M230.13,166.31c-35.09-3.47-66.35,22.22-69.81,57.4-3.47,35.18,22.17,66.51,57.26,69.98,35.09,3.47,66.35-22.22,69.81-57.4.41-4.18.41-8.4,0-12.58-3.04-30.35-26.99-54.35-57.26-57.4Z" style="fill:none; stroke:#ff9100; stroke-linecap:round; stroke-linejoin:round; stroke-width:32px;"/><path d="M384.4,230c-.04,6.96-.55,13.9-1.53,20.79l45.21,35.46c4.07,3.37,5.1,9.18,2.45,13.75l-42.77,74c-2.68,4.52-8.23,6.46-13.14,4.59l-44.9-18.08c-5.03-2-10.73-1.35-15.17,1.75-6.85,4.72-14.05,8.91-21.54,12.54-4.78,2.32-8.09,6.88-8.82,12.14l-6.73,47.89c-.91,5.22-5.39,9.06-10.68,9.17h-85.54c-5.2-.09-9.64-3.78-10.69-8.87l-6.72-47.82c-.77-5.32-4.14-9.91-9-12.22-7.48-3.61-14.65-7.81-21.46-12.57-4.43-3.08-10.11-3.72-15.11-1.71l-44.89,18.07c-4.91,1.87-10.46-.06-13.14-4.58l-42.77-74c-2.66-4.57-1.62-10.38,2.45-13.75l38.21-30c4.25-3.38,6.51-8.67,6-14.08-.36-4.17-.58-8.33-.58-12.5s.21-8.27.58-12.35c.45-5.37-1.83-10.61-6.07-13.94l-38.19-30c-4-3.38-5-9.15-2.37-13.68l42.77-74c2.68-4.52,8.23-6.46,13.14-4.59l44.9,18.08c5.03,2,10.73,1.35,15.17-1.75,6.85-4.72,14.05-8.91,21.54-12.54,4.78-2.32,8.09-6.88,8.82-12.14l6.73-47.89c.91-5.22,5.39-9.06,10.68-9.17h85.54c5.2.09,9.64,3.78,10.69,8.87l6.72,47.82c.77,5.32,4.14,9.91,9,12.22,7.48,3.61,14.65,7.81,21.46,12.57,4.43,3.08,10.11,3.72,15.11,1.71l44.89-18.07c4.91-1.87,10.46.06,13.14,4.58l42.77,74c2.66,4.57,1.62,10.38-2.45,13.75l-38.21,30c-4.27,3.37-6.55,8.66-6.05,14.08.33,4.14.55,8.3.55,12.47h0Z" style="fill:none; stroke:#4c1c84; stroke-linecap:round; stroke-linejoin:round; stroke-width:32px;"/></svg>