<?xml version="1.0" encoding="UTF-8"?><svg id="Layer_1" xmlns="http://www.w3.org/2000/svg" viewBox="0 0 18 22"><path d="M9,0l8.22,1.83c.46.1.78.51.78.98v9.99c0,2.01-1,3.88-2.67,4.99l-6.33,4.22-6.33-4.22c-1.67-1.11-2.67-2.99-2.67-4.99V2.8c0-.47.33-.87.78-.98L9,0Z" style="fill:#4c1c84; stroke-width:0px;"/><path d="M9,2.05l-7,1.56v9.18c0,1.34.67,2.59,1.78,3.33l5.22,3.48,5.22-3.48c1.11-.74,1.78-1.99,1.78-3.33V3.6l-7-1.56Z" style="fill:#fff; stroke-width:0px;"/><polygon points="13.17 6.93 14.58 8.35 8.22 14.71 3.98 10.47 5.39 9.05 8.22 11.88 13.17 6.93" style="fill:#ff9100; stroke-width:0px;"/></svg>