<?xml version="1.0" encoding="UTF-8"?><svg id="Layer_1" xmlns="http://www.w3.org/2000/svg" viewBox="0 0 18.05 20"><path d="M17.44,4.11L9.44.11c-.28-.15-.61-.15-.89,0L.55,4.11c-.29.16-.49.46-.52.79,0,.11-1,10.77,8.59,15,.13.06.27.1.41.1.14,0,.28-.03.4-.09,9.52-4.24,8.6-14.91,8.6-15.01-.04-.35-.27-.65-.59-.79ZM9.03,17.9C2.23,14.63,1.91,7.64,1.96,5.63l7-3.51,7,3.51c.13,2.01-.19,9-6.93,12.27Z" style="fill:#4c1c84; stroke-width:0px;"/><polygon points="13.02 6.21 14.43 7.63 8.07 13.99 3.82 9.75 5.24 8.33 8.07 11.16 13.02 6.21" style="fill:#ff9100; stroke-width:0px;"/></svg>